C:\Users\Nicos\Documents\OpenSimProjects\SprintingProject\Study1\PredictiveResults\IC_pred_Sprinting_optimum_28-October-2023__10-02-52_p02_maxVel_01___HTD_Plus_6_GRF.mot
version=1
nRows=6
nColumns=127
inDegrees=yes
endheader
time	ground_force_vx	ground_force_vy	ground_force_vz	ground_force_px	ground_force_py	ground_force_pz	ground_torque_x	ground_torque_y	ground_torque_z	1_ground_force_vx	1_ground_force_vy	1_ground_force_vz	1_ground_force_px	1_ground_force_py	1_ground_force_pz	1_ground_torque_x	1_ground_torque_y	1_ground_torque_z	2_ground_force_vx	2_ground_force_vy	2_ground_force_vz	2_ground_force_px	2_ground_force_py	2_ground_force_pz	2_ground_torque_x	2_ground_torque_y	2_ground_torque_z	3_ground_force_vx	3_ground_force_vy	3_ground_force_vz	3_ground_force_px	3_ground_force_py	3_ground_force_pz	3_ground_torque_x	3_ground_torque_y	3_ground_torque_z	4_ground_force_vx	4_ground_force_vy	4_ground_force_vz	4_ground_force_px	4_ground_force_py	4_ground_force_pz	4_ground_torque_x	4_ground_torque_y	4_ground_torque_z	5_ground_force_vx	5_ground_force_vy	5_ground_force_vz	5_ground_force_px	5_ground_force_py	5_ground_force_pz	5_ground_torque_x	5_ground_torque_y	5_ground_torque_z	6_ground_force_vx	6_ground_force_vy	6_ground_force_vz	6_ground_force_px	6_ground_force_py	6_ground_force_pz	6_ground_torque_x	6_ground_torque_y	6_ground_torque_z	7_ground_force_vx	7_ground_force_vy	7_ground_force_vz	7_ground_force_px	7_ground_force_py	7_ground_force_pz	7_ground_torque_x	7_ground_torque_y	7_ground_torque_z	8_ground_force_vx	8_ground_force_vy	8_ground_force_vz	8_ground_force_px	8_ground_force_py	8_ground_force_pz	8_ground_torque_x	8_ground_torque_y	8_ground_torque_z	9_ground_force_vx	9_ground_force_vy	9_ground_force_vz	9_ground_force_px	9_ground_force_py	9_ground_force_pz	9_ground_torque_x	9_ground_torque_y	9_ground_torque_z	10_ground_force_vx	10_ground_force_vy	10_ground_force_vz	10_ground_force_px	10_ground_force_py	10_ground_force_pz	10_ground_torque_x	10_ground_torque_y	10_ground_torque_z	11_ground_force_vx	11_ground_force_vy	11_ground_force_vz	11_ground_force_px	11_ground_force_py	11_ground_force_pz	11_ground_torque_x	11_ground_torque_y	11_ground_torque_z	12_ground_force_vx	12_ground_force_vy	12_ground_force_vz	12_ground_force_px	12_ground_force_py	12_ground_force_pz	12_ground_torque_x	12_ground_torque_y	12_ground_torque_z	13_ground_force_vx	13_ground_force_vy	13_ground_force_vz	13_ground_force_px	13_ground_force_py	13_ground_force_pz	13_ground_torque_x	13_ground_torque_y	13_ground_torque_z
0.161628	-0.000000	0.000000	0.000000	0.549839	0.038525	0.381582	0.000000	0.000000	0.000000	-0.000000	0.000000	0.000000	0.548758	0.061572	0.400059	0.000000	0.000000	0.000000	-0.000000	0.000000	0.000000	0.553892	0.073754	0.396751	0.000000	0.000000	0.000000	-0.000000	0.000000	0.000000	0.554249	0.071097	0.374657	0.000000	0.000000	0.000000	-0.000000	0.000000	0.000000	0.546129	0.117740	0.421755	0.000000	0.000000	0.000000	-0.000000	0.000000	0.000000	0.551246	0.088276	0.389722	0.000000	0.000000	0.000000	-0.000000	0.000000	0.000000	0.540661	0.146365	0.361608	0.000000	0.000000	0.000000	-0.000000	0.000000	-0.000000	1.225468	0.172959	0.168303	0.000000	0.000000	0.000000	-0.000000	0.000000	-0.000000	1.210278	0.194237	0.147677	0.000000	0.000000	0.000000	-0.000000	0.000000	-0.000000	1.187159	0.206776	0.155772	0.000000	0.000000	0.000000	-0.000000	0.000000	-0.000000	1.179656	0.202466	0.175416	0.000000	0.000000	0.000000	-0.000000	0.000000	-0.000000	1.159534	0.248577	0.129842	0.000000	0.000000	0.000000	-0.000000	0.000000	-0.000000	1.171228	0.219251	0.160635	0.000000	0.000000	0.000000	-0.000000	0.000000	-0.000000	1.107504	0.269153	0.180087	0.000000	0.000000	0.000000
0.162284	-0.000000	0.000000	-0.000000	0.552690	0.040839	0.381596	0.000000	0.000000	0.000000	-0.000000	0.000000	-0.000000	0.552167	0.063889	0.400087	0.000000	0.000000	0.000000	-0.000000	0.000000	0.000000	0.557568	0.076056	0.396739	0.000000	0.000000	0.000000	-0.000000	0.000000	0.000000	0.557843	0.073401	0.374644	0.000000	0.000000	0.000000	-0.000000	0.000000	0.000000	0.550919	0.120084	0.421780	0.000000	0.000000	0.000000	-0.000000	0.000000	0.000000	0.555279	0.090595	0.389723	0.000000	0.000000	0.000000	-0.000000	0.000000	0.000000	0.546123	0.148751	0.361658	0.000000	0.000000	0.000000	-0.000000	0.000000	-0.000000	1.238027	0.171480	0.169136	0.000000	0.000000	0.000000	-0.000000	0.000000	-0.000000	1.222444	0.192665	0.148417	0.000000	0.000000	0.000000	-0.000000	0.000000	-0.000000	1.199113	0.205114	0.156477	0.000000	0.000000	0.000000	-0.000000	0.000000	-0.000000	1.191709	0.200798	0.176153	0.000000	0.000000	0.000000	-0.000000	0.000000	-0.000000	1.170740	0.246762	0.130367	0.000000	0.000000	0.000000	-0.000000	0.000000	-0.000000	1.182975	0.217527	0.161296	0.000000	0.000000	0.000000	-0.000000	0.000000	-0.000000	1.118425	0.267180	0.180573	0.000000	0.000000	0.000000
0.164353	-0.000000	0.000000	-0.000000	0.562477	0.048251	0.381761	0.000000	0.000000	0.000000	-0.000000	0.000000	-0.000000	0.563617	0.071289	0.400278	0.000000	0.000000	0.000000	-0.000000	0.000000	0.000000	0.569771	0.083427	0.396752	0.000000	0.000000	0.000000	-0.000000	0.000000	0.000000	0.569779	0.080779	0.374651	0.000000	0.000000	0.000000	-0.000000	0.000000	0.000000	0.566495	0.127535	0.421891	0.000000	0.000000	0.000000	-0.000000	0.000000	0.000000	0.568548	0.098002	0.389768	0.000000	0.000000	0.000000	-0.000000	0.000000	0.000000	0.563655	0.156302	0.361834	0.000000	0.000000	0.000000	-0.000000	0.000000	-0.000000	1.277821	0.166796	0.171808	0.000000	0.000000	0.000000	-0.000000	0.000000	-0.000000	1.261018	0.187674	0.150800	0.000000	0.000000	0.000000	-0.000000	0.000000	-0.000000	1.237040	0.199840	0.158757	0.000000	0.000000	0.000000	-0.000000	0.000000	-0.000000	1.229954	0.195510	0.178538	0.000000	0.000000	0.000000	-0.000000	0.000000	-0.000000	1.206342	0.240983	0.132081	0.000000	0.000000	0.000000	-0.000000	0.000000	-0.000000	1.220266	0.212054	0.163442	0.000000	0.000000	0.000000	-0.000000	0.000000	-0.000000	1.153172	0.260908	0.182179	0.000000	0.000000	0.000000
0.165854	-0.000000	0.000000	0.000000	0.570183	0.053712	0.381836	0.000000	0.000000	0.000000	-0.000000	0.000000	0.000000	0.572448	0.076721	0.400394	0.000000	0.000000	0.000000	-0.000000	0.000000	0.000000	0.579091	0.088850	0.396714	0.000000	0.000000	0.000000	-0.000000	0.000000	0.000000	0.578908	0.086217	0.374607	0.000000	0.000000	0.000000	-0.000000	0.000000	0.000000	0.578154	0.132969	0.421968	0.000000	0.000000	0.000000	-0.000000	0.000000	0.000000	0.578604	0.103440	0.389769	0.000000	0.000000	0.000000	-0.000000	0.000000	0.000000	0.576657	0.161802	0.361989	0.000000	0.000000	0.000000	-0.000000	0.000000	-0.000000	1.306769	0.163391	0.173782	0.000000	0.000000	0.000000	-0.000000	0.000000	-0.000000	1.289101	0.184037	0.152568	0.000000	0.000000	0.000000	-0.000000	0.000000	-0.000000	1.264681	0.195998	0.160455	0.000000	0.000000	0.000000	-0.000000	0.000000	-0.000000	1.257828	0.191665	0.180315	0.000000	0.000000	0.000000	-0.000000	0.000000	-0.000000	1.232333	0.236756	0.133370	0.000000	0.000000	0.000000	-0.000000	0.000000	-0.000000	1.247462	0.208065	0.165045	0.000000	0.000000	0.000000	-0.000000	0.000000	-0.000000	1.178585	0.256332	0.183404	0.000000	0.000000	0.000000
0.166509	-0.000000	0.000000	0.000000	0.573679	0.056120	0.381820	0.000000	0.000000	0.000000	-0.000000	0.000000	0.000000	0.576420	0.079110	0.400410	0.000000	0.000000	0.000000	-0.000000	0.000000	0.000000	0.583266	0.091238	0.396665	0.000000	0.000000	0.000000	-0.000000	0.000000	0.000000	0.583005	0.088617	0.374553	0.000000	0.000000	0.000000	-0.000000	0.000000	0.000000	0.583333	0.135350	0.421994	0.000000	0.000000	0.000000	-0.000000	0.000000	0.000000	0.583097	0.105834	0.389745	0.000000	0.000000	0.000000	-0.000000	0.000000	0.000000	0.582421	0.164215	0.362065	0.000000	0.000000	0.000000	-0.000000	0.000000	-0.000000	1.319440	0.161902	0.174652	0.000000	0.000000	0.000000	-0.000000	0.000000	-0.000000	1.301399	0.182444	0.153349	0.000000	0.000000	0.000000	-0.000000	0.000000	-0.000000	1.276792	0.194315	0.161208	0.000000	0.000000	0.000000	-0.000000	0.000000	-0.000000	1.270042	0.189982	0.181103	0.000000	0.000000	0.000000	-0.000000	0.000000	-0.000000	1.243734	0.234901	0.133944	0.000000	0.000000	0.000000	-0.000000	0.000000	-0.000000	1.259383	0.206317	0.165757	0.000000	0.000000	0.000000	-0.000000	0.000000	-0.000000	1.189744	0.254326	0.183953	0.000000	0.000000	0.000000
0.168579	-0.000000	0.000000	0.000000	0.585135	0.063831	0.381436	0.000000	0.000000	0.000000	-0.000000	0.000000	0.000000	0.589330	0.086729	0.400210	0.000000	0.000000	0.000000	-0.000000	0.000000	0.000000	0.596808	0.098864	0.396288	0.000000	0.000000	0.000000	-0.000000	0.000000	0.000000	0.596331	0.096299	0.374153	0.000000	0.000000	0.000000	-0.000000	0.000000	0.000000	0.599997	0.142889	0.422016	0.000000	0.000000	0.000000	-0.000000	0.000000	0.000000	0.597650	0.113469	0.389500	0.000000	0.000000	0.000000	-0.000000	0.000000	0.000000	0.601016	0.171889	0.362350	0.000000	0.000000	0.000000	-0.000000	0.000000	-0.000000	1.359589	0.157192	0.177436	0.000000	0.000000	0.000000	-0.000000	0.000000	-0.000000	1.340392	0.177397	0.155854	0.000000	0.000000	0.000000	-0.000000	0.000000	-0.000000	1.315220	0.188985	0.163627	0.000000	0.000000	0.000000	-0.000000	0.000000	-0.000000	1.308795	0.184659	0.183636	0.000000	0.000000	0.000000	-0.000000	0.000000	-0.000000	1.279955	0.229007	0.135801	0.000000	0.000000	0.000000	-0.000000	0.000000	-0.000000	1.297225	0.200781	0.168050	0.000000	0.000000	0.000000	-0.000000	0.000000	-0.000000	1.225243	0.247966	0.185739	0.000000	0.000000	0.000000
